<svg width="232" height="25" viewBox="0 0 232 25" xmlns="http://www.w3.org/2000/svg"><title>logo</title><g fill="none" fill-rule="evenodd"><path d="M226.723 19.66H226V19h2.17v.66h-.724v2.314h-.723V19.66zm2.15-.66h.748l.43 1.236.15.485h.02l.15-.48.42-1.23h.75v2.98h-.67v-.88c0-.07.01-.16.01-.25l.03-.28.03-.28c.01-.09.02-.17.03-.24h-.01l-.22.7-.38 1.01h-.27l-.38-1-.22-.69h-.01l.03.25.03.29.02.28c.01.09.01.17.01.25V22h-.67v-3z" fill="#DDD"/><path d="M163.795 17.103c0 .773-.148 1.465-.444 2.075-.29.61-.68 1.125-1.17 1.546-.49.42-1.07.74-1.73.954-.66.215-1.36.322-2.09.322-1.11 0-2.13-.202-3.05-.606-.92-.403-1.68-.95-2.29-1.636l.43-.387c.65.71 1.39 1.24 2.25 1.59.86.35 1.74.53 2.65.53.66 0 1.29-.1 1.88-.3.59-.19 1.12-.48 1.57-.85.46-.37.82-.82 1.08-1.36.26-.54.39-1.16.39-1.87 0-.7-.14-1.29-.43-1.77s-.66-.89-1.11-1.23c-.46-.34-.98-.63-1.56-.86-.58-.23-1.17-.44-1.76-.63-.74-.24-1.42-.49-2.04-.76-.62-.26-1.15-.59-1.6-.98-.45-.38-.79-.85-1.04-1.39-.24-.54-.36-1.2-.36-1.97 0-.75.15-1.43.45-2.02.3-.59.7-1.09 1.2-1.49.51-.4 1.1-.71 1.76-.93.67-.21 1.38-.32 2.12-.32.91 0 1.78.18 2.6.53.82.36 1.49.86 2.02 1.51l-.43.39c-.473-.6-1.08-1.07-1.812-1.4-.735-.33-1.53-.5-2.395-.5-.61 0-1.207.09-1.79.26s-1.11.44-1.59.79c-.473.35-.853.8-1.14 1.33-.29.53-.43 1.16-.43 1.88 0 .7.126 1.3.38 1.79s.59.91 1.01 1.25c.427.34.9.63 1.436.85.53.22 1.08.43 1.64.62.76.26 1.47.52 2.13.79.66.27 1.234.59 1.73.97.5.38.89.84 1.17 1.38.28.54.42 1.2.42 1.97zm8.92 4.407c-.203.086-.44.155-.71.206-.27.052-.532.078-.786.078-.92 0-1.57-.262-1.97-.786s-.6-1.182-.6-1.972V10.12h-2.54v-.49h2.51V6.15h.58v3.48h3.42v.49h-3.42v8.916c0 .808.19 1.388.58 1.74.39.352.9.528 1.54.528.47 0 .9-.077 1.29-.232l.07.438zm12.808-3.144c-.186.55-.435 1.044-.748 1.482-.312.438-.67.803-1.076 1.095-.41.292-.85.516-1.32.67-.48.155-.97.232-1.47.232-.81 0-1.49-.146-2.03-.438-.54-.292-.97-.678-1.29-1.16-.32-.48-.55-1.022-.69-1.623-.14-.602-.2-1.212-.2-1.83V9.63h.55v7.112c0 .5.05 1.018.15 1.56.1.54.29 1.035.57 1.482.28.446.65.82 1.11 1.12.46.3 1.06.452 1.81.452.64 0 1.24-.133 1.81-.4.57-.266 1.06-.648 1.47-1.147.41-.5.74-1.11.99-1.82.24-.72.37-1.53.37-2.44V9.63h.55v8.865c0 .19 0 .42.01.696l.02.84c0 .29.02.56.03.81.01.26.03.48.05.65h-.56c-.01-.17-.03-.38-.04-.64l-.03-.83c-.01-.3-.014-.59-.02-.87-.01-.28-.01-.53-.01-.76h-.05zM200.538 2h.557v19.485h-.557V18.29h-.076c-.507 1.167-1.23 2.052-2.167 2.653-.937.602-1.964.902-3.08.902-.843 0-1.624-.16-2.342-.476-.718-.32-1.335-.76-1.85-1.32-.516-.56-.917-1.22-1.204-1.99-.29-.77-.44-1.6-.44-2.49 0-.89.14-1.73.43-2.5s.69-1.44 1.2-2.01c.51-.57 1.13-1.01 1.85-1.33.72-.32 1.5-.48 2.34-.48 1.11 0 2.14.3 3.08.9.93.6 1.66 1.49 2.16 2.68h.07V2zm-10.592 13.582c0 .774.122 1.512.367 2.217.245.7.596 1.31 1.052 1.84.456.52 1.01.94 1.66 1.25.65.31 1.38.46 2.19.46.78 0 1.492-.16 2.143-.47.65-.31 1.212-.73 1.685-1.25.473-.53.845-1.14 1.115-1.85.27-.71.405-1.46.405-2.25s-.135-1.54-.405-2.25-.642-1.32-1.115-1.84-1.035-.94-1.685-1.25c-.65-.31-1.364-.47-2.142-.47-.81 0-1.54.16-2.19.47-.652.32-1.205.74-1.66 1.28-.457.53-.808 1.15-1.053 1.85-.245.71-.367 1.44-.367 2.22zM206.543 5.17c-.152 0-.287-.06-.405-.18-.118-.12-.177-.284-.177-.49 0-.19.06-.344.18-.464.12-.12.26-.18.41-.18.16 0 .29.06.41.18s.18.275.18.464c0 .206-.06.37-.19.49-.12.12-.25.18-.39.18zm-.278 16.315V9.63h.557v11.855h-.557zm16.902-5.954c0 .93-.148 1.78-.444 2.56-.296.78-.714 1.44-1.254 2-.55.56-1.19 1-1.94 1.3-.76.31-1.58.47-2.47.47-.9 0-1.72-.15-2.46-.46-.75-.31-1.39-.74-1.93-1.3s-.96-1.22-1.26-2c-.3-.77-.45-1.62-.45-2.55 0-.93.15-1.77.44-2.54.3-.76.71-1.42 1.25-1.97s1.18-.98 1.93-1.29c.74-.31 1.56-.46 2.46-.46.89 0 1.72.16 2.47.47.75.31 1.4.74 1.94 1.29s.96 1.21 1.25 1.97c.3.77.44 1.61.44 2.54zm-.558 0c0-.79-.13-1.53-.38-2.24-.26-.7-.63-1.32-1.11-1.84-.48-.52-1.07-.93-1.75-1.23-.69-.3-1.46-.45-2.32-.45-.87 0-1.63.15-2.31.45-.68.3-1.26.72-1.74 1.24-.48.53-.85 1.14-1.1 1.85-.26.7-.38 1.45-.38 2.24 0 .81.12 1.57.38 2.27.25.7.62 1.32 1.1 1.84.48.53 1.06.94 1.73 1.25.67.31 1.44.47 2.31.47.86 0 1.63-.15 2.31-.46.68-.31 1.26-.72 1.75-1.25.48-.52.85-1.14 1.1-1.84.25-.7.38-1.46.38-2.27zM55.02 10.67c.567 0 1.106-.042 1.618-.127.513-.082.97-.23 1.373-.446.41-.215.72-.51.96-.884.24-.375.36-.86.36-1.46 0-.58-.12-1.05-.36-1.416-.24-.365-.55-.65-.94-.856-.39-.2-.84-.34-1.34-.4s-1.02-.1-1.55-.1h-1.68v5.7h1.58zM50 2h5.494c1.114 0 2.12.103 3.016.31.895.204 1.664.542 2.304 1.008.64.468 1.132 1.066 1.48 1.796.348.73.522 1.61.522 2.637 0 1.11-.202 2.03-.603 2.78-.403.75-.947 1.35-1.633 1.81-.685.46-1.485.79-2.4 1-.913.21-1.882.31-2.906.31h-1.82v8.22H50V2zm14.466 6.422h3.29V21.85h-3.29V8.42zM64 4.02c0-.542.196-1.015.59-1.417.39-.403.89-.603 1.492-.603.604 0 1.112.19 1.523.575.41.384.617.865.617 1.444 0 .58-.206 1.06-.617 1.44-.41.38-.92.57-1.523.57-.603 0-1.1-.2-1.494-.61-.394-.4-.59-.88-.59-1.42zm7 4.373h3.126v2.16h.055c.3-.673.8-1.267 1.53-1.782.72-.51 1.58-.77 2.57-.77.86 0 1.6.16 2.21.47.62.31 1.12.72 1.51 1.22.39.51.68 1.09.87 1.74.18.66.27 1.33.27 2.02v8.38h-3.29V14.4c0-.394-.02-.805-.08-1.236-.05-.428-.17-.816-.35-1.162-.18-.345-.43-.63-.75-.855-.32-.224-.74-.337-1.27-.337s-.98.108-1.37.323c-.38.216-.69.49-.94.83-.25.336-.43.724-.56 1.163-.13.44-.19.883-.19 1.332v7.37H71V8.39zm23.037 5.385c0-.43-.06-.84-.178-1.234-.12-.393-.31-.738-.57-1.037-.26-.3-.58-.538-.98-.716-.4-.17-.86-.26-1.39-.26-.99 0-1.83.31-2.51.91-.69.61-1.07 1.39-1.14 2.34h6.74zm3.29 1.516v.448c0 .15-.01.3-.026.45H87.29c.037.486.16.93.37 1.332s.49.747.838 1.038c.346.29.74.518 1.18.686.437.17.894.253 1.37.253.823 0 1.517-.15 2.084-.46.566-.31 1.033-.73 1.4-1.27l2.193 1.8c-1.3 1.8-3.182 2.7-5.65 2.7-1.023 0-1.965-.16-2.824-.49-.86-.32-1.6-.79-2.23-1.39-.63-.59-1.12-1.33-1.48-2.2-.35-.87-.53-1.85-.53-2.96 0-1.08.18-2.07.54-2.96.36-.89.85-1.64 1.47-2.27.62-.63 1.36-1.11 2.21-1.46.85-.34 1.77-.52 2.76-.52.92 0 1.76.16 2.54.47.78.31 1.45.77 2.02 1.38.57.61 1.01 1.37 1.33 2.28.32.91.48 1.97.48 3.19zm11.435-3.17c-.272-.327-.64-.688-1.152-.94-.512-.253-1.033-.38-1.562-.38-.604 0-1.135.127-1.59.38-.46.252-.837.584-1.14.996-.3.412-.525.874-.67 1.388-.147.515-.22 1.034-.22 1.557 0 .524.077 1.043.232 1.557.155.515.39.977.7 1.388.31.412.7.744 1.165.997.766.415 1.697.457 2.532.266.728-.168 1.348-.553 1.87-1.094l2.056 2.13c-.548.6-1.247 1.06-2.098 1.39-.85.32-1.768.49-2.756.49-.97 0-1.89-.16-2.76-.48-.87-.32-1.63-.79-2.28-1.41-.65-.62-1.16-1.37-1.54-2.25-.38-.88-.56-1.88-.56-3 0-1.09.18-2.07.56-2.95.37-.88.88-1.63 1.52-2.25s1.38-1.1 2.23-1.43c.85-.34 1.76-.51 2.73-.51.96 0 1.9.19 2.81.56.9.37 1.62.89 2.15 1.54l-2.25 2.02zm12.288 3.59h-.74c-.53 0-1.09.024-1.674.07-.584.047-1.124.15-1.617.31-.5.158-.91.382-1.24.672-.33.29-.5.687-.5 1.192 0 .318.07.585.2.8.13.215.31.388.53.52.22.13.47.223.74.28.27.055.55.083.82.083 1.13 0 1.99-.3 2.58-.92.58-.62.88-1.46.88-2.52v-.48zm.054 4.432h-.082c-.33.6-.86 1.09-1.59 1.474-.732.382-1.563.574-2.496.574-.53 0-1.083-.07-1.66-.21-.575-.14-1.105-.374-1.59-.702-.484-.327-.886-.757-1.207-1.29-.32-.533-.48-1.193-.48-1.978 0-1.01.28-1.813.83-2.412.56-.6 1.27-1.056 2.15-1.375.87-.317 1.85-.528 2.92-.63 1.07-.104 2.11-.155 3.14-.155v-.337c0-.84-.3-1.463-.89-1.866-.6-.41-1.3-.61-2.13-.61-.7 0-1.36.15-2 .45-.64.3-1.17.66-1.59 1.09l-1.7-2.05c.75-.71 1.61-1.25 2.59-1.6.97-.36 1.97-.53 2.97-.53 1.17 0 2.13.16 2.89.5.76.33 1.35.77 1.79 1.32.44.54.74 1.15.92 1.82.17.67.26 1.35.26 2.02v8.18h-3.07v-1.7zm13.67-8.162c-.29-.393-.694-.735-1.205-1.024-.52-.29-1.07-.435-1.68-.435-.53 0-1.02.112-1.46.337-.44.224-.66.598-.66 1.122 0 .524.24.893.72 1.108.48.215 1.19.434 2.12.66.49.11.99.26 1.49.448.5.187.96.434 1.37.743.41.31.74.692 1 1.15.26.458.38 1.015.38 1.67 0 .822-.15 1.52-.45 2.09-.31.57-.71 1.032-1.21 1.387-.5.356-1.09.613-1.76.772-.67.158-1.36.238-2.07.238-1.03 0-2.02-.192-2.99-.575-.97-.383-1.78-.93-2.42-1.64l2.16-2.077c.36.487.84.89 1.42 1.207.583.318 1.232.477 1.95.477.233 0 .48-.03.722-.084.246-.057.475-.145.685-.268.21-.12.38-.285.51-.49.13-.206.19-.457.19-.757 0-.56-.25-.963-.75-1.207-.506-.242-1.26-.486-2.265-.73-.492-.11-.973-.256-1.44-.433-.465-.178-.88-.412-1.25-.7-.362-.292-.654-.65-.874-1.082-.22-.43-.33-.96-.33-1.59 0-.75.15-1.39.452-1.93.3-.54.7-.98 1.195-1.33.49-.34 1.05-.6 1.67-.77.62-.17 1.26-.25 1.92-.25.95 0 1.88.17 2.783.51.9.34 1.62.85 2.15 1.54l-2.1 1.93zM138 10.592V7.9h2.303V4h3.236v3.9h3.29l-.57 2.692h-2.72v6.256c0 .6.1 1.094.31 1.487s.68.59 1.41.59c.22 0 .45-.025.71-.07.25-.048.48-.118.68-.212l.11 2.637c-.29.113-.64.2-1.04.266s-.79.1-1.15.1c-.88 0-1.6-.128-2.14-.38-.55-.253-.99-.598-1.31-1.038-.32-.44-.54-.945-.66-1.515s-.18-1.183-.18-1.836v-6.285H138z" fill="#FFF"/><g fill="#D591F8"><path d="M10.12 20.638H33.8c.985-2.737 1.037-5.73.134-8.52-1.062-3.27-3.304-5.924-6.317-7.47-3.012-1.546-6.432-1.8-9.63-.714-6.602 2.24-10.192 9.557-8.002 16.31.042.132.087.263.134.394m31.36 3.27H9.07c-.564 0-1.086-.306-1.374-.802l-.095-.162c-.03-.055-.06-.11-.08-.168-.21-.49-.4-.996-.57-1.5C4.21 12.808 8.71 3.636 16.98.83c4.007-1.36 8.295-1.04 12.068.895 3.776 1.94 6.586 5.264 7.916 9.364 1.01 3.11 1.07 6.43.194 9.54h4.32c.88 0 1.596.73 1.596 1.63s-.716 1.63-1.597 1.63"/><path d="M22.633 16.3c0 .904-.715 1.635-1.598 1.635-.882 0-1.597-.73-1.597-1.634 0-.9.715-1.63 1.597-1.63.883 0 1.598.73 1.598 1.64"/><path d="M13.06 18.302c-.875 0-1.59-.723-1.597-1.62-.014-1.737.422-3.456 1.263-4.973 1.278-2.31 3.358-3.97 5.86-4.68 2.497-.71 5.118-.38 7.375.93 1.1.63 2.05 1.46 2.83 2.46.55.7.44 1.73-.26 2.29-.69.56-1.69.44-2.24-.27-.52-.67-1.15-1.23-1.89-1.66-1.51-.88-3.27-1.1-4.95-.63-1.67.47-3.07 1.59-3.93 3.14-.56 1.02-.85 2.17-.84 3.33.01.9-.7 1.64-1.58 1.65h-.01zm-10.632 6.3c-.882 0-1.598-.732-1.598-1.634 0-.902.716-1.635 1.598-1.635h1.997c.882 0 1.598.733 1.598 1.635s-.716 1.634-1.598 1.634H2.428z"/></g></g></svg>
